#!OML:ASF E:\acrobat2\Project_11_07_03\Capture day 1\Session 1\Acrobat.ASF
:FULLY-SPECIFIED
:DEGREES
659
root 1.24743 17.9583 28.1461 370.432 -82.2387 -3.10455
lowerback -4.88442 0.479764 -0.614188
upperback -4.19762 0.54682 -1.75127
thorax -1.56605 0.221911 -1.43441
lowerneck -1.10656 -2.95917 -0.194892
upperneck 0.932469 -3.99237 2.95346
head 0.53371 -1.9829 0.900415
rclavicle 8.54774e-015 3.97569e-015
rhumerus -17.6878 -37.6858 1.53554
rradius 20.9832
rwrist 10.0226
rhand -15.8904 -48.787
rfingers 7.12502
rthumb 10.3058 -438.515
lclavicle 8.54774e-015 3.97569e-015
lhumerus 1.48643 12.8787 0.246355
lradius 22.603
lwrist 14.0681
lhand -14.8533 -7.87852
lfingers 7.12502
lthumb 11.3063 21.7967
rfemur 13.6943 26.0993 14.9889
rtibia -6.29143
rfoot -49.3537 -34.3674
rtoes 25.3891
lfemur 7.68366 -13.3388 -6.34831
ltibia -5.10779
lfoot -29.9106 3.78212
ltoes 46.2251
660
root 1.23558 17.9567 28.1463 370.84 -82.3367 -3.42516
lowerback -5.03834 0.47384 -0.561986
upperback -4.20861 0.5384 -1.72907
thorax -1.49153 0.216317 -1.4401
lowerneck -1.19434 -2.91781 -0.384608
upperneck 1.01809 -3.94293 3.26021
head 0.58558 -1.95589 1.02592
rclavicle 4.18939e-014 -4.77083e-015
rhumerus -17.5949 -36.5127 1.28291
rradius 21.247
rwrist 8.56821
rhand -15.8672 -48.9486
rfingers 7.12502
rthumb 10.3283 -438.675
lclavicle 4.18939e-014 -4.77083e-015
lhumerus 1.35879 12.7338 0.183259
lradius 22.6861
lwrist 14.3836
lhand -14.9362 -7.70246
lfingers 7.12502
lthumb 11.2262 21.9772
rfemur 13.6033 26.2074 14.9791
rtibia -6.26083
rfoot -49.3718 -34.3311
rtoes 25.4496
lfemur 7.6745 -13.3711 -6.31617
ltibia -5.14221
lfoot -30.0693 3.91391
ltoes 46.1903
661
root 1.22349 17.9554 28.1467 370.775 -82.4534 -3.2717
lowerback -5.21387 0.459463 -0.592263
upperback -4.18357 0.522909 -1.72713
thorax -1.36866 0.209161 -1.4203
lowerneck -1.41805 -2.90086 -0.405421
upperneck 1.15455 -3.92835 3.39665
head 0.668715 -1.9446 1.06799
rclavicle 1.84373e-014 -1.27222e-014
rhumerus -17.4759 -36.5872 1.20228
rradius 21.2781
rwrist 8.31002
rhand -15.8747 -48.8565
rfingers 7.12502
rthumb 10.321 -438.583
lclavicle 1.84373e-014 -1.27222e-014
lhumerus 1.16365 12.2959 -0.00472742
lradius 22.8358
lwrist 15.0753
lhand -15.0609 -7.56777
lfingers 7.12502
lthumb 11.106 22.1184
rfemur 13.5451 26.4787 14.9341
rtibia -6.23271
rfoot -49.8735 -33.7999
rtoes 26.7994
lfemur 7.67478 -13.3788 -6.34889
ltibia -5.18863
lfoot -30.0879 4.29435
ltoes 45.7279
662
root 1.21419 17.9544 28.1466 371.096 -82.5718 -3.55283
lowerback -5.28344 0.463283 -0.579217
upperback -4.17487 0.529064 -1.69239
thorax -1.321 0.212508 -1.3911
lowerneck -1.59766 -2.91072 -0.266274
upperneck 1.25891 -3.94461 3.21729
head 0.723793 -1.95047 0.985378
rclavicle 1.11816e-015 -7.95139e-015
rhumerus -17.3953 -39.3953 1.55149
rradius 21.049
rwrist 10.8806
rhand -15.6605 -48.6575
rfingers 7.12502
rthumb 10.5277 -438.374
lclavicle 1.11816e-015 -7.95139e-015
lhumerus 1.04807 11.8615 -0.119822
lradius 22.8867
lwrist 15.733
lhand -15.1042 -7.46566
lfingers 7.12502
lthumb 11.0643 22.2227
rfemur 13.4765 26.6077 14.9335
rtibia -6.1705
rfoot -49.7482 -33.8805
rtoes 26.2276
lfemur 7.71955 -13.5053 -6.36366
ltibia -5.22724
lfoot -30.2721 4.79656
ltoes 44.8039
663
root 1.20662 17.9538 28.1457 372.134 -82.6957 -4.58473
lowerback -5.26961 0.512517 -0.443864
upperback -4.19304 0.589391 -1.66317
thorax -1.34503 0.240102 -1.43478
lowerneck -1.73013 -2.96988 -0.178988
upperneck 1.37743 -4.02693 3.08989
head 0.779014 -1.98967 0.927497
rclavicle -1.73688e-014 3.18055e-014
rhumerus -17.4481 -42.0593 1.95877
rradius 20.8592
rwrist 13.3897
rhand -15.5385 -48.7189
rfingers 7.12502
rthumb 10.6453 -438.429
lclavicle -1.73688e-014 3.18055e-014
lhumerus 1.07481 11.6363 -0.138853
lradius 22.8577
lwrist 16.021
lhand -15.0681 -7.47661
lfingers 7.12502
lthumb 11.099 22.2099
rfemur 13.3489 26.4971 14.9792
rtibia -6.07216
rfoot -48.8285 -34.4539
rtoes 24.2069
lfemur 7.78422 -13.6181 -6.29345
ltibia -5.24352
lfoot -30.4512 5.45579
ltoes 43.412
664
root 1.19819 17.9538 28.1465 372.627 -82.8161 -5.04874
lowerback -5.31034 0.53348 -0.340549
upperback -4.2138 0.612111 -1.70421
thorax -1.34181 0.248027 -1.53385
lowerneck -1.83761 -2.98397 -0.0596769
upperneck 1.50806 -4.05409 3.09297
head 0.835439 -2.00051 0.905755
rclavicle 1.26228e-014 8.74653e-015
rhumerus -17.2699 -39.8409 1.54695
rradius 20.822
rwrist 11.1
rhand -15.9305 -49.2122
rfingers 7.12502
rthumb 10.2672 -438.942
lclavicle 1.26228e-014 8.74653e-015
lhumerus 1.11619 11.7442 -0.18397
lradius 22.8076
lwrist 15.7892
lhand -14.9706 -7.49383
lfingers 7.12502
lthumb 11.1931 22.1876
rfemur 13.221 26.3347 14.9146
rtibia -6.01794
rfoot -48.1065 -34.4954
rtoes 23.5161
lfemur 7.8519 -13.7247 -6.30697
ltibia -5.28022
lfoot -30.5559 6.12089
ltoes 42.1333
665
root 1.18726 17.9527 28.1465 371.961 -82.9469 -4.31748
lowerback -5.42422 0.483706 -0.448703
upperback -4.24955 0.547281 -1.75674
thorax -1.31768 0.215794 -1.52923
lowerneck -1.8045 -2.9188 0.189098
upperneck 1.5153 -3.97163 2.98763
head 0.822298 -1.95936 0.833211
rclavicle -7.35503e-015 8.74653e-015
rhumerus -17.3785 -43.5388 1.85973
rradius 20.8885
rwrist 14.9255
rhand -15.4583 -48.9096
rfingers 7.12502
rthumb 10.7227 -438.616
lclavicle -7.35503e-015 8.74653e-015
lhumerus 1.03874 11.6789 -0.328434
lradius 22.8008
lwrist 15.8483
lhand -14.8335 -7.39362
lfingers 7.12502
lthumb 11.3253 22.2806
rfemur 13.103 26.1719 14.6688
rtibia -5.98854
rfoot -47.7788 -34.2109
rtoes 23.547
lfemur 7.93822 -13.9136 -6.50542
ltibia -5.37935
lfoot -30.8376 6.3255
ltoes 41.9948
